<svg width="16" height="16" viewBox="0 0 16 16" fill="none" xmlns="http://www.w3.org/2000/svg">
<path d="M9.5 6.75H11.5" stroke="#75728D" stroke-linecap="round" stroke-linejoin="round"/>
<path d="M4.5 6.75H6.5" stroke="#75728D" stroke-linecap="round" stroke-linejoin="round"/>
<path d="M5.5 5.75V7.75" stroke="#75728D" stroke-linecap="round" stroke-linejoin="round"/>
<path d="M10.75 3.4812L5.25003 3.49995C4.48612 3.5014 3.74704 3.77139 3.16206 4.26268C2.57708 4.75397 2.18346 5.43528 2.05003 6.18745L1.02503 11.4437C0.959216 11.8108 1.01238 12.1892 1.17676 12.524C1.34114 12.8587 1.60815 13.1322 1.93885 13.3045C2.26956 13.4768 2.64666 13.539 3.01519 13.482C3.38371 13.4249 3.72438 13.2517 3.98753 12.9875L6.68753 9.99995L10.75 9.9812C11.612 9.9812 12.4386 9.63879 13.0481 9.0293C13.6576 8.41981 14 7.59315 14 6.7312C14 5.86925 13.6576 5.0426 13.0481 4.4331C12.4386 3.82361 11.612 3.4812 10.75 3.4812Z" stroke="#75728D" stroke-linecap="round" stroke-linejoin="round"/>
<path d="M13.95 6.1687L14.975 11.4437C15.0408 11.8108 14.9877 12.1892 14.8233 12.524C14.6589 12.8587 14.3919 13.1322 14.0612 13.3045C13.7305 13.4768 13.3534 13.539 12.9848 13.482C12.6163 13.4249 12.2756 13.2517 12.0125 12.9875L9.3125 9.98745" stroke="#75728D" stroke-linecap="round" stroke-linejoin="round"/>
</svg>
